<svg viewBox="0 0 40 40" xmlns="http://www.w3.org/2000/svg"><path d="m0 0h40v40h-40z" fill="#f2f2f2"/><path clip-rule="evenodd" d="m4.2793 2.56641h.8125v.8125h-.8125zm5.6875.8125v.8125h.8125v1.625h.8125v1.625h.8125v4.06249h-.8125v.8125h-.8125v.8125h-.8125v.8125h-4.875v-.8125h-.8125v-.8125h-.8125v-1.625h-.8125v-4.06249h.8125v-3.25h.8125v.81224h.81241v.00026h.00009v.8125h.81249v-1.625h.8125v-.8125h-.8125v-1.625004h.8125v.812504h1.62501v.8125h.8125v.8125zm0 0v-.8125h.8125v.8125zm-5.6875-2.437504h-.8125v.812504h.8125zm3.25033 5.688384h.8125v.8125h-.8125zm-1.625 2.4375v-.8125h3.25v.8125h.8125v3.25001h-.8125v.8125h-3.25v-.8125h-.8125v-3.25001zm.8125.8125h-.8125v1.62501h.8125zm2.4375 0v1.62501h-.8125v-1.62501z" fill="#bdbdbd" fill-rule="evenodd" transform="matrix(1.333 0 0 1.333 10 10)"/></svg>