<svg fill="none" viewBox="0 0 15 15" xmlns="http://www.w3.org/2000/svg"><rect fill="#0a7aff" height="15" rx="2" width="15"/><path d="m5.48533 4.80477c1.03948.78157 2.15748 2.36627 2.56802 3.21664.41054-.85036 1.52855-2.43507 2.56805-3.21665.75-.56391 1.9653-1.00027 1.9653.38821 0 .27731-.1588 2.32945-.2519 2.66264-.3236 1.15828-1.5029 1.45371-2.55197 1.2749 1.83367.31254 2.30017 1.34779 1.29277 2.38309-1.91329 1.9662-2.74991-.4933-2.96429-1.1235-.0393-.1156-.05769-.1696-.05796-.1237-.00027-.0459-.01866.0081-.05796.1237-.21437.6302-1.051 3.0897-2.96425 1.1235-1.00741-1.0353-.54097-2.07055 1.29273-2.38311-1.04905.17881-2.22836-.11662-2.552-1.27489-.0931-.33319-.25185-2.38536-.25185-2.66264 0-1.38847 1.2153-.95213 1.96531-.38819z" fill="#fff"/></svg>