<svg fill="none" height="21" viewBox="0 0 20 21" width="20" xmlns="http://www.w3.org/2000/svg"><path d="m9.38018 10.0078-8.688926 9.2704c.246017.984 1.147516 1.7221 2.295026 1.7221.40946 0 .81978-.0817 1.22924-.3278l9.83728-5.6609z" fill="#ea4335"/><path d="m18.2344 8.44931-4.2631-2.46103-4.75438 4.26492 4.75438 4.7586 4.1814-2.4611c.7372-.4103 1.2293-1.1492 1.2293-2.0515.0817-.90238-.4104-1.63958-1.1476-2.04989z" fill="#fbbc04"/><path d="m.690945 1.72266c-.081722.16429-.081723.41031-.081723.5746v16.40574c0 .2468.000001.4103.081723.5746l9.017515-9.0235z" fill="#4285f4"/><path d="m9.46254 10.4996 4.50836-4.51176-9.83647-5.6601c-.32859-.2460177-.73805-.32774-1.23009-.32774-1.06579 0-2.049009.738052-2.295026 1.72212z" fill="#34a853"/></svg>