<svg fill="none" height="40" viewBox="0 0 40 40" width="40" xmlns="http://www.w3.org/2000/svg"><rect height="39" rx="7.5" width="39" x=".5" y=".5"/><path d="m18.796 10.8495-1.8139 6.7653c-.2286.857.0143 1.7711.6427 2.3948l4.9514 4.9514c.6284.6284 1.5378.8712 2.3947.6427l6.7654-1.8139c.8569-.2285 1.5235-.8998 1.752-1.752l1.8139-6.7653c.2285-.857-.0143-1.7711-.6427-2.3948l-4.9514-4.95139c-.6285-.62845-1.5378-.87125-2.3948-.64273l-6.7653 1.81392c-.857.22853-1.5235.89982-1.752 1.752z" fill="#fff"/><path d="m17.5385 19.9237 4.9743 5.0155c.638.638 1.5854.8999 2.4757.6808l6.8376-1.8828c.5951-.1428.7475-.857.2809-1.2759l-5.1418-4.642c-.6142-.557-1.4997-.7808-2.3234-.5951l-6.6701 1.5092c-.5856.1334-.8284.7951-.4284 1.195z" fill="#b9b9b9"/><path d="m27.3585 17.2151 4.8938 5.2085c.4207.4475 1.1364.2904 1.2863-.2952l1.7229-6.8831c.2273-.8951-.029-1.8425-.677-2.4805l-4.9096-4.91452c-.4111-.40468-1.0978-.15235-1.2332.45229l-1.5813 7.06053c-.1499.6617.0387 1.3664.4933 1.852z" fill="#d1d1d1"/><path d="m18.8662 10.573-1.8996 7.0985c-.1571.5904.3809 1.1284.9712.9713l7.0986-1.8997c.6856-.1856 1.2188-.7189 1.4045-1.4044l1.8996-7.09861c.1571-.59036-.3809-1.12835-.9712-.97124l-7.0986 1.89962c-.6856.18568-1.2188.71891-1.4045 1.40453z" fill="#e8e8e8"/><path d="m11.9183 14.168-6.06546 3.4993c-.76652.4428-1.23785 1.2617-1.23785 2.1472v7.0034c0 .8855.47133 1.7044 1.23785 2.1471l6.06546 3.4993c.7665.4428 1.7139.4428 2.4804 0l6.0655-3.4993c.7665-.4427 1.2378-1.2616 1.2378-2.1471v-7.0034c0-.8855-.4713-1.7044-1.2378-2.1472l-6.0655-3.4993c-.7665-.4428-1.7139-.4428-2.4804 0z" fill="#fff"/><path d="m4.61482 19.6954-.08437 7.01c0 .8998.48562 1.7568 1.26641 2.2329l6.22124 3.5545c.5237.319 1.1331-.0762 1.0998-.7046l-.3523-6.9177c-.0429-.8284-.5047-1.6092-1.2188-2.0615l-5.78459-3.6516c-.50942-.319-1.14739-.0238-1.14739.5427z" fill="#b9b9b9"/><path d="m13.4696 24.7991-.2809 7.1906c-.0238.6181.5856 1.0093 1.1045.6954l6.1275-3.7233c.7903-.4829 1.2807-1.3425 1.2807-2.2552v-6.9878c0-.5843-.6522-.8837-1.176-.5457l-6.0941 3.9503c-.5713.3718-.9379 1.0093-.9665 1.6757z" fill="#d1d1d1"/><path d="m12.1701 14.025-6.36066 3.6754c-.52847.3047-.52847 1.0712 0 1.3759l6.36066 3.6755c.6141.3523 1.3711.3523 1.9853 0l6.3606-3.6755c.5285-.3047.5285-1.0712 0-1.3759l-6.3606-3.6754c-.6142-.3523-1.3712-.3523-1.9853 0z" fill="#e8e8e8"/><g fill="#747474"><path d="m25.3523 11.062.1457-.5913-.9213.2528-.1499.5956z"/><path d="m23.8059 10.3894.1499-.58276-.9169.25276-.15.5871-.9127.2528-.1585.587.917-.2528-.1543.5913-.1585.5956-.9213.2528-.1585.5999.9255-.2528-.1585.6041-.1586.6085-.1585.6084-.9298.2529-.1671.6127.9341-.2528-.1586.6213.9384-.2528.1585-.6213.9427-.2528.1543-.6128-.9384.2528.1585-.6084.1543-.6085.9341-.2528.15-.6041-.9299.2528.1543-.5999.1542-.5956.15-.5913.9255-.2571.1457-.587z"/><path d="m21.8183 11.4873-.9127.2528-.1585.5913-.1629.5956.917-.2528.1585-.5956z"/><path d="m23.6643 14.3363.9384-.2528.1542-.6127.15-.6085-.9341.2571-.1542.6042z"/><path d="m20.0954 14.7352-.1628.6085.9298-.2485.1586-.6128z"/><path d="m6.53882 21.5283.42372.1524v.4332l-.42372-.1523v-.4285z"/><path d="m7.36806 23.5612-.42372-.1667v.419l.41896.1714v-.419z"/><path d="m8.67798 24.5184.45705.1857-.01428.4285-.45229-.1904.01428-.4285z"/><path d="m7.3832 22.7048-.42849-.1618-.00476.4285.42373.1618z"/><path d="m10.9817 26.8036.0523-.8761-.4951-.2047.0476-.8855-.4904-.1952.0238-.4475-.48559-.1857.01904-.4476-.47133-.1761.01428-.4523-.92362-.338.00952-.4428-.44753-.1619-.01904.8808.44752.1666-.01428.4381-.44277-.1714-.01428.8522-.42848-.1762.00476-.419-.42373-.1666.00476-.4237-.41896-.1619-.00476 1.6473-.39992-.1666v1.9567l.3904.1857-.00476.7665.39515.1952-.00476.3761.40468.2047-.00952.3762 2.56615 1.3092.01905-.3951.45702.2285.0238-.3999.4714.2333.0238-.4095.4856.2333.1381-2.1281z"/><path d="m10.6343 23.9326-.4951-.1904-.0191.4523.4904.1904z"/></g><g fill="#fff"><path d="m9.10109 25.5566-.45229-.1904-.01428.419.44753.1952.01428-.4238z"/><path clip-rule="evenodd" d="m7.75917 25.8135-.00952.4047-.41896-.1905-.02381 1.5664.40945.1999-.00953.3857 1.71395.8617.01428-.3952.45229.2238.07617-1.6378-.46181-.2094.01905-.4142-1.77108-.7904zm-.01428.8046.42373.1952-.01905.7951-.41896-.2048.01428-.7903zm1.71871 1.6235.03332-.8142-.45229-.2094-.02856.8046.44753.2142z" fill-rule="evenodd"/><path d="m11.5136 18.1452c.4969 0 .8998-.259.8998-.5785 0-.3194-.4029-.5784-.8998-.5784-.497 0-.8998.259-.8998.5784 0 .3195.4028.5785.8998.5785z"/><path d="m14.3139 19.778c.4969 0 .8998-.259.8998-.5785 0-.3194-.4029-.5784-.8998-.5784-.497 0-.8998.259-.8998.5784 0 .3195.4028.5785.8998.5785z"/><path d="m16.4233 25.6014c.3319-.3319.428-.7739.2147-.9872-.2134-.2134-.6554-.1173-.9873.2146-.3319.3318-.4279.7738-.2146.9872.2134.2133.6554.1173.9872-.2146z"/><path d="m19.2139 24.3026c.3318-.3319.4279-.7739.2146-.9873-.2134-.2133-.6554-.1172-.9872.2146-.3319.3319-.428.7739-.2147.9873.2134.2133.6554.1172.9873-.2146z"/><path d="m16.6372 28.4432c.3319-.3319.428-.7739.2146-.9873-.2133-.2133-.6553-.1172-.9872.2147-.3319.3318-.428.7738-.2146.9872.2133.2133.6553.1173.9872-.2146z"/><path d="m19.3735 27.1756c.3319-.3319.428-.7739.2146-.9872-.2133-.2134-.6553-.1173-.9872.2146s-.4279.7739-.2146.9872c.2134.2134.6554.1173.9872-.2146z"/><path d="m22.8627 21.9285c.4493-.0622.7811-.347.7411-.6361s-.4367-.473-.886-.4109c-.4493.0622-.7811.347-.7411.6361.0401.2891.4367.4731.886.4109z"/><path d="m25.7436 20.9383c.4493-.0622.781-.347.741-.6361s-.4366-.4731-.8859-.4109-.7811.347-.7411.6361.4367.473.886.4109z"/><path d="m24.6752 23.9129c.4493-.0622.7811-.347.7411-.6361s-.4367-.4731-.886-.4109-.7811.347-.7411.6361c.0401.2891.4367.4731.886.4109z"/><path d="m27.5541 22.9178c.4493-.0622.7811-.347.7411-.6361s-.4367-.4731-.886-.4109-.7811.347-.741.6361c.04.2891.4366.473.8859.4109z"/><path d="m30.4782 14.5104c.2674-.1749.2635-.6538-.0086-1.0697-.2722-.4158-.7095-.6111-.9768-.4362-.2673.175-.2634.6539.0087 1.0697.2721.4159.7094.6112.9767.4362z"/><path d="m32.7611 17.077c.2879-.1384.3467-.6138.1312-1.0616-.2154-.4478-.6234-.6986-.9113-.5601s-.3466.6138-.1312 1.0616c.2154.4479.6234.6986.9113.5601z"/></g></svg>